<?xml version="1.0"?>
<svg xmlns="http://www.w3.org/2000/svg" xmlns:xlink="http://www.w3.org/1999/xlink" xmlns:svgjs="http://svgjs.com/svgjs" version="1.1" width="512" height="512" x="0" y="0" viewBox="0 0 512 512" style="enable-background:new 0 0 512 512" xml:space="preserve" class=""><g><path xmlns="http://www.w3.org/2000/svg" d="m181 406h150v91h-150zm0 0" fill="#b4d2d7" data-original="#b4d2d7" style=""/><path xmlns="http://www.w3.org/2000/svg" d="m256 406h75v91h-75zm0 0" fill="#87a0af" data-original="#87a0af" style=""/><path xmlns="http://www.w3.org/2000/svg" d="m512 0v330l-30 30h-452l-30-30v-330zm0 0" fill="#474f54" data-original="#474f54" style=""/><path xmlns="http://www.w3.org/2000/svg" d="m512 0v330l-30 30h-226v-360zm0 0" fill="#32393f" data-original="#32393f" style=""/><path xmlns="http://www.w3.org/2000/svg" d="m512 330v91h-512v-91h241l15 15 15-15zm0 0" fill="#e1ebf0" data-original="#e1ebf0" style="" class=""/><path xmlns="http://www.w3.org/2000/svg" d="m512 330v91h-256v-76l15-15zm0 0" fill="#b4d2d7" data-original="#b4d2d7" style=""/><path xmlns="http://www.w3.org/2000/svg" d="m30 30h452v270h-452zm0 0" fill="#e1ebf0" data-original="#e1ebf0" style="" class=""/><path xmlns="http://www.w3.org/2000/svg" d="m256 30h226v270h-226zm0 0" fill="#b4d2d7" data-original="#b4d2d7" style=""/><path xmlns="http://www.w3.org/2000/svg" d="m241 330h30v30h-30zm0 0" fill="#7ed8f6" data-original="#7ed8f6" style=""/><path xmlns="http://www.w3.org/2000/svg" d="m256 330h15v30h-15zm0 0" fill="#6aa9ff" data-original="#6aa9ff" style=""/><path xmlns="http://www.w3.org/2000/svg" d="m121 482h270v30h-270zm0 0" fill="#e1ebf0" data-original="#e1ebf0" style="" class=""/><path xmlns="http://www.w3.org/2000/svg" d="m256 482h135v30h-135zm0 0" fill="#b4d2d7" data-original="#b4d2d7" style=""/><path xmlns="http://www.w3.org/2000/svg" d="m145.273438 60h-85.273438v30h31v30l30 30v-60h5.726562l25.855469 51.710938 26.835938-13.421876zm0 0" fill="#676e74" data-original="#676e74" style=""/><path xmlns="http://www.w3.org/2000/svg" d="m452 120v120h-361v-120h68.699219l60-60 36.300781 14.398438 15 6 24.300781 9.601562 87 30zm0 0" fill="#ff6c6c" data-original="#ff6c6c" style=""/><path xmlns="http://www.w3.org/2000/svg" d="m452 120v120h-196v-165.601562l15 6 24.300781 9.601562 87 30zm0 0" fill="#e63950" data-original="#e63950" style=""/><path xmlns="http://www.w3.org/2000/svg" d="m196 270c-24.8125 0-45-20.1875-45-45s20.1875-45 45-45 45 20.1875 45 45-20.1875 45-45 45zm0 0" fill="#676e74" data-original="#676e74" style=""/><path xmlns="http://www.w3.org/2000/svg" d="m346 270c-24.8125 0-45-20.1875-45-45s20.1875-45 45-45 45 20.1875 45 45-20.1875 45-45 45zm0 0" fill="#474f54" data-original="#474f54" style=""/><path xmlns="http://www.w3.org/2000/svg" d="m196 210c-8.277344 0-15 6.722656-15 15s6.722656 15 15 15 15-6.722656 15-15-6.722656-15-15-15zm0 0" fill="#e1ebf0" data-original="#e1ebf0" style="" class=""/><path xmlns="http://www.w3.org/2000/svg" d="m346 210c-8.277344 0-15 6.722656-15 15s6.722656 15 15 15 15-6.722656 15-15-6.722656-15-15-15zm0 0" fill="#b4d2d7" data-original="#b4d2d7" style=""/><path xmlns="http://www.w3.org/2000/svg" d="m382.300781 120h-117l-9.300781-12.300781-36.300781-47.699219h102.601562zm0 0" fill="#676e74" data-original="#676e74" style=""/><path xmlns="http://www.w3.org/2000/svg" d="m382.300781 120h-117l-9.300781-12.300781v-47.699219h66.300781zm0 0" fill="#474f54" data-original="#474f54" style=""/></g></svg>
